<svg xmlns="http://www.w3.org/2000/svg" version="1.1" xmlns:xlink="http://www.w3.org/1999/xlink" xmlns:svgjs="http://svgjs.dev/svgjs" width="1000" height="1000" viewBox="0 0 1000 1000"><rect width="1000" height="1000" fill="#ffffff"></rect><g transform="matrix(0.7,0,0,0.7,149.57575757575756,384.69133718768694)"><svg viewBox="0 0 396 131" data-background-color="#ffffff" preserveAspectRatio="xMidYMid meet" height="330" width="1000" xmlns="http://www.w3.org/2000/svg" xmlns:xlink="http://www.w3.org/1999/xlink"><g id="tight-bounds" transform="matrix(1,0,0,1,0.2400000000000091,-0.10850723630733228)"><svg viewBox="0 0 395.52 131.2170144726147" height="131.2170144726147" width="395.52"><g><svg viewBox="0 0 571.65959031039 189.6527728943351" height="131.2170144726147" width="395.52"><g transform="matrix(1,0,0,1,176.13959031039,60.51872130709246)"><svg viewBox="0 0 395.52 68.61533028015018" height="68.61533028015018" width="395.52"><g><svg viewBox="0 0 395.52 68.61533028015018" height="68.61533028015018" width="395.52"><g><svg viewBox="0 0 395.52 68.61533028015018" height="68.61533028015018" width="395.52"><g transform="matrix(1,0,0,1,0,0)"><svg width="395.52" viewBox="2.494186046511628 -35.85 213.84581395348837 37.1" height="68.61533028015018" data-palette-color="#2a160c"><g class="undefined-text-0" data-fill-palette-color="primary" id="text-0"><path d="M18.3-13.65Q17.35-13.3 16.75-13.3L16.75-13.3Q15.65-13.3 14.68-14.05 13.7-14.8 13.05-16.1L13.05-16.1 14.45-17Q16.85-18.6 18-19.45L18-19.45Q21.85-22.45 24.7-25.05L24.7-25.05Q25.25-25.5 26-26.9L26-26.9 26.7-28.1 25.8-28.55Q25.65-28.6 25.13-28.83 24.6-29.05 24.25-29.1L24.25-29.1Q19.9-29.55 14.5-29.9L14.5-29.9Q12.8-30.05 12.3-28.05L12.3-28.05 8.1-8.6Q7.75-7.1 7.55-5.98 7.35-4.85 7.2-4.1L7.2-4.1 6.75-1.85Q6.55-1.05 6.1-0.58 5.65-0.1 4.8-0.05L4.8-0.05 4.15 0Q3.2 0 2.83-0.45 2.45-0.9 2.5-2.05L2.5-2.05 2.6-4.05Q2.9-9.95 3.35-12.9L3.35-12.9Q3.65-15.05 4.23-17.65 4.8-20.25 5-21.05L5-21.05Q5.7-23.95 6-25.45L6-25.45 3.4-25.9Q2.8-27.2 2.8-28.15L2.8-28.15Q2.8-29.75 4.3-31.4L4.3-31.4Q5.35-32.6 6.8-33.35 8.25-34.1 9.8-34.35L9.8-34.35Q12.05-34.6 13.8-34.6L13.8-34.6Q20.65-34.6 27.7-31.7L27.7-31.7Q28.55-31.35 29.4-30.63 30.25-29.9 30.5-29.7L30.5-29.7Q32.45-28.05 32.45-26.25L32.45-26.25Q32.45-25.05 31.7-23.6L31.7-23.6Q31.3-22.75 30.35-21.65L30.35-21.65Q25.7-16.55 18.3-13.65L18.3-13.65ZM45.45-18.6Q45.45-18.4 45.5-18.18 45.55-17.95 45.6-17.75L45.6-17.75Q46-17.7 46.8-17.7L46.8-17.7Q50.3-17.7 54-19.2L54-19.2Q55.05-19.6 55.75-19.6L55.75-19.6Q57.15-19.6 58.05-18.3L58.05-18.3Q58.5-17.6 58.5-17.1L58.5-17.1Q58.5-16.5 57.85-15.85L57.85-15.85Q55.85-14 53.6-13.75L53.6-13.75Q51.6-13.5 47.6-12.9L47.6-12.9 44.1-12.4Q43.3-10.65 43.3-9L43.3-9Q43.3-6.6 44.97-5.03 46.65-3.45 49.55-3.35L49.55-3.35Q52.5-3.3 57.1-3.75L57.1-3.75 57.85-3.8Q59.1-3.8 59.92-3.23 60.75-2.65 61.5-1.2L61.5-1.2Q60.95 0 59.95 0.43 58.95 0.85 57.35 1.05L57.35 1.05Q55.7 1.25 53.6 1.25L53.6 1.25Q49.05 1.25 45.4-0.2L45.4-0.2Q38.95-2.7 37.15-8.85L37.15-8.85Q36.9-9.7 36.9-10.68 36.9-11.65 36.9-11.85L36.9-11.85Q36.9-13.55 35.25-14.35L35.25-14.35Q33.9-15.1 33.17-15.8 32.45-16.5 32.25-17.9L32.25-17.9 37.9-18.25 40.45-25.6Q40.55-25.95 40.67-26.48 40.8-27 40.95-27.3L40.95-27.3Q41.4-28.3 41.4-28.95L41.4-28.95Q41.4-29.95 40.45-30.7L40.45-30.7Q40.1-30.95 39.87-31.63 39.65-32.3 39.45-32.7L39.45-32.7 40.55-33.05Q41.35-33.25 41.7-33.4L41.7-33.4Q41.9-33.5 42.55-33.77 43.2-34.05 43.3-34.4L43.3-34.4Q43.65-35.25 44.17-35.55 44.7-35.85 45.45-35.85L45.45-35.85Q45.95-35.85 46.95-35.75L46.95-35.75Q47.25-35.75 47.57-35.63 47.9-35.5 48.1-35.3L48.1-35.3Q49.25-34.1 50.65-33.7 52.05-33.3 53.95-33.3L53.95-33.3 56.1-33.3 60.3-33.3Q64.55-33.3 66.65-33.2L66.65-33.2Q67.75-33.15 69.45-32.25L69.45-32.25Q69.75-32.1 69.92-31.68 70.1-31.25 70.1-30.85L70.1-30.85Q70.1-30.65 69.75-30.38 69.4-30.1 69.1-30L69.1-30Q65.7-29.1 63.95-28.95L63.95-28.95Q61.25-28.7 55.85-28.3L55.85-28.3Q54.6-28.25 51.85-28.05L51.85-28.05Q51.65-28.05 51.15-28.18 50.65-28.3 50.4-28.3L50.4-28.3Q48.55-28.3 48.05-26.75L48.05-26.75Q46.7-22.75 45.5-18.8L45.5-18.8 45.45-18.6ZM84.09-17.25Q84.25-19.3 84.39-21.03 84.55-22.75 84.69-24.15L84.69-24.15 85.09-28.15Q81.19-27.55 76.8-25.85L76.8-25.85Q75.75-25.45 74.84-25.45L74.84-25.45Q73.5-25.45 72.37-26.2 71.25-26.95 70.59-28.4L70.59-28.4Q70.89-29.5 71.72-30.05 72.55-30.6 74-31.15L74-31.15Q80.94-33.7 89.89-33.65L89.89-33.65Q94.14-33.65 98.77-33.3 103.4-32.95 104.19-32.9L104.19-32.9 107.69-32.65Q107.9-32.65 108.37-32.65 108.84-32.65 109.15-32.43 109.44-32.2 109.44-31.7L109.44-31.7Q109.44-30.45 107.65-30.25L107.65-30.25Q103.15-29.75 101.25-29.55L101.25-29.55Q99.3-29.45 98.3-29.35L98.3-29.35Q94.39-29.1 92.44-28.95L92.44-28.95Q91.25-28.85 90.8-28.68 90.34-28.5 90.22-28.08 90.09-27.65 90-26.3L90-26.3Q89.75-23.15 88.94-15.45L88.94-15.45Q88.14-8.5 87.94-5.85L87.94-5.85Q87.89-4.4 87.3-2.35L87.3-2.35Q86.89-1.05 86.64-0.63 86.39-0.2 85.92-0.1 85.44 0 84.14-0.05L84.14-0.05Q83.19-0.05 82.67-0.48 82.14-0.9 82.14-1.65L82.14-1.65Q82.14-1.8 82.25-2.3L82.25-2.3Q83.34-6.65 84.09-17.25L84.09-17.25ZM125.19-13.65Q124.24-13.3 123.64-13.3L123.64-13.3Q122.54-13.3 121.57-14.05 120.59-14.8 119.94-16.1L119.94-16.1 121.34-17Q123.74-18.6 124.89-19.45L124.89-19.45Q128.74-22.45 131.59-25.05L131.59-25.05Q132.14-25.5 132.89-26.9L132.89-26.9 133.59-28.1 132.69-28.55Q132.54-28.6 132.02-28.83 131.49-29.05 131.14-29.1L131.14-29.1Q126.79-29.55 121.39-29.9L121.39-29.9Q119.69-30.05 119.19-28.05L119.19-28.05 114.99-8.6Q114.64-7.1 114.44-5.98 114.24-4.85 114.09-4.1L114.09-4.1 113.64-1.85Q113.44-1.05 112.99-0.58 112.54-0.1 111.69-0.05L111.69-0.05 111.04 0Q110.09 0 109.72-0.45 109.34-0.9 109.39-2.05L109.39-2.05 109.49-4.05Q109.79-9.95 110.24-12.9L110.24-12.9Q110.54-15.05 111.12-17.65 111.69-20.25 111.89-21.05L111.89-21.05Q112.59-23.95 112.89-25.45L112.89-25.45 110.29-25.9Q109.69-27.2 109.69-28.15L109.69-28.15Q109.69-29.75 111.19-31.4L111.19-31.4Q112.24-32.6 113.69-33.35 115.14-34.1 116.69-34.35L116.69-34.35Q118.94-34.6 120.69-34.6L120.69-34.6Q127.54-34.6 134.59-31.7L134.59-31.7Q135.44-31.35 136.29-30.63 137.14-29.9 137.39-29.7L137.39-29.7Q139.34-28.05 139.34-26.25L139.34-26.25Q139.34-25.05 138.59-23.6L138.59-23.6Q138.19-22.75 137.24-21.65L137.24-21.65Q132.59-16.55 125.19-13.65L125.19-13.65ZM152.34-18.6Q152.34-18.4 152.39-18.18 152.44-17.95 152.49-17.75L152.49-17.75Q152.89-17.7 153.69-17.7L153.69-17.7Q157.19-17.7 160.89-19.2L160.89-19.2Q161.94-19.6 162.64-19.6L162.64-19.6Q164.04-19.6 164.94-18.3L164.94-18.3Q165.39-17.6 165.39-17.1L165.39-17.1Q165.39-16.5 164.74-15.85L164.74-15.85Q162.74-14 160.49-13.75L160.49-13.75Q158.49-13.5 154.49-12.9L154.49-12.9 150.99-12.4Q150.19-10.65 150.19-9L150.19-9Q150.19-6.6 151.87-5.03 153.54-3.45 156.44-3.35L156.44-3.35Q159.39-3.3 163.99-3.75L163.99-3.75 164.74-3.8Q165.99-3.8 166.82-3.23 167.64-2.65 168.39-1.2L168.39-1.2Q167.84 0 166.84 0.43 165.84 0.85 164.24 1.05L164.24 1.05Q162.59 1.25 160.49 1.25L160.49 1.25Q155.94 1.25 152.29-0.2L152.29-0.2Q145.84-2.7 144.04-8.85L144.04-8.85Q143.79-9.7 143.79-10.68 143.79-11.65 143.79-11.85L143.79-11.85Q143.79-13.55 142.14-14.35L142.14-14.35Q140.79-15.1 140.07-15.8 139.34-16.5 139.14-17.9L139.14-17.9 144.79-18.25 147.34-25.6Q147.44-25.95 147.57-26.48 147.69-27 147.84-27.3L147.84-27.3Q148.29-28.3 148.29-28.95L148.29-28.95Q148.29-29.95 147.34-30.7L147.34-30.7Q146.99-30.95 146.77-31.63 146.54-32.3 146.34-32.7L146.34-32.7 147.44-33.05Q148.24-33.25 148.59-33.4L148.59-33.4Q148.79-33.5 149.44-33.77 150.09-34.05 150.19-34.4L150.19-34.4Q150.54-35.25 151.07-35.55 151.59-35.85 152.34-35.85L152.34-35.85Q152.84-35.85 153.84-35.75L153.84-35.75Q154.14-35.75 154.47-35.63 154.79-35.5 154.99-35.3L154.99-35.3Q156.14-34.1 157.54-33.7 158.94-33.3 160.84-33.3L160.84-33.3 162.99-33.3 167.19-33.3Q171.44-33.3 173.54-33.2L173.54-33.2Q174.64-33.15 176.34-32.25L176.34-32.25Q176.64-32.1 176.82-31.68 176.99-31.25 176.99-30.85L176.99-30.85Q176.99-30.65 176.64-30.38 176.29-30.1 175.99-30L175.99-30Q172.59-29.1 170.84-28.95L170.84-28.95Q168.14-28.7 162.74-28.3L162.74-28.3Q161.49-28.25 158.74-28.05L158.74-28.05Q158.54-28.05 158.04-28.18 157.54-28.3 157.29-28.3L157.29-28.3Q155.44-28.3 154.94-26.75L154.94-26.75Q153.59-22.75 152.39-18.8L152.39-18.8 152.34-18.6ZM190.99-17.25Q191.14-19.3 191.29-21.03 191.44-22.75 191.59-24.15L191.59-24.15 191.99-28.15Q188.09-27.55 183.69-25.85L183.69-25.85Q182.64-25.45 181.74-25.45L181.74-25.45Q180.39-25.45 179.26-26.2 178.14-26.95 177.49-28.4L177.49-28.4Q177.79-29.5 178.61-30.05 179.44-30.6 180.89-31.15L180.89-31.15Q187.84-33.7 196.79-33.65L196.79-33.65Q201.04-33.65 205.66-33.3 210.29-32.95 211.09-32.9L211.09-32.9 214.59-32.65Q214.79-32.65 215.26-32.65 215.74-32.65 216.04-32.43 216.34-32.2 216.34-31.7L216.34-31.7Q216.34-30.45 214.54-30.25L214.54-30.25Q210.04-29.75 208.14-29.55L208.14-29.55Q206.19-29.45 205.19-29.35L205.19-29.35Q201.29-29.1 199.34-28.95L199.34-28.95Q198.14-28.85 197.69-28.68 197.24-28.5 197.11-28.08 196.99-27.65 196.89-26.3L196.89-26.3Q196.64-23.15 195.84-15.45L195.84-15.45Q195.04-8.5 194.84-5.85L194.84-5.85Q194.79-4.4 194.19-2.35L194.19-2.35Q193.79-1.05 193.54-0.63 193.29-0.2 192.81-0.1 192.34 0 191.04-0.05L191.04-0.05Q190.09-0.05 189.56-0.48 189.04-0.9 189.04-1.65L189.04-1.65Q189.04-1.8 189.14-2.3L189.14-2.3Q190.24-6.65 190.99-17.25L190.99-17.25Z" fill="#2a160c" data-fill-palette-color="primary"></path></g></svg></g></svg></g></svg></g></svg></g><g><svg viewBox="0 0 159.94115759917327 189.6527728943351" height="189.6527728943351" width="159.94115759917327"><g><svg xmlns="http://www.w3.org/2000/svg" xmlns:xlink="http://www.w3.org/1999/xlink" version="1.1" x="0" y="0" viewBox="12.555535046357715 3.819016908306455 68.64759911257526 81.39998309169354" enable-background="new 0 0 90 90" xml:space="preserve" height="189.6527728943351" width="159.94115759917327" class="icon-icon-0" data-fill-palette-color="accent" id="icon-0"><path fill="#99802a" d="M55.145 73.943c-0.325 0-0.655-0.095-0.944-0.293-0.762-0.522-0.955-1.563-0.433-2.325 1.052-1.532 2.088-4.402 2.472-6.546-0.361 0.109-0.718 0.222-1.01 0.312-2.593 0.81-3.379 1.056-4.179 0.108-0.435-0.513-0.519-1.269-0.216-1.868 1.566-3.104 2.095-8.217 1.153-11.164-0.281-0.88 0.204-1.82 1.084-2.102 0.881-0.28 1.821 0.205 2.102 1.084 0.911 2.853 0.796 6.979-0.161 10.506 2.318-0.715 3.121-0.895 3.919-0.368 0.419 0.275 0.717 0.763 0.77 1.261 0.306 2.9-1.487 8.208-3.176 10.669C56.201 73.689 55.678 73.943 55.145 73.943z" data-fill-palette-color="accent"></path><path fill="#99802a" d="M51.938 85.219H25.811c-8.611 0-12.429-4.854-13.13-9.397-0.758-4.907 1.987-9.657 6.385-11.048 1.173-0.369 2.426 0.279 2.798 1.454 0.371 1.174-0.279 2.427-1.454 2.798-2.318 0.733-3.747 3.362-3.321 6.116 0.543 3.518 3.804 5.618 8.723 5.618h26.127c0.202 0 0.316-0.122 0.367-0.195 0.079-0.116 0.096-0.237 0.048-0.362-0.181-0.475-0.46-0.938-1.679-0.938h-3.091c-1.617 0-3.31-0.917-4.115-2.23-0.64-1.043-0.699-2.247-0.163-3.305 0.438-0.863 0.779-3.99-0.576-5.865-0.332-0.458-1.339-1.846-4.706-1.337-1.215 0.189-2.354-0.652-2.539-1.869-0.186-1.218 0.651-2.354 1.869-2.539 5-0.766 7.651 1.282 8.988 3.132 2.109 2.915 2.126 7.054 1.321 9.555h3.012c2.831 0 4.906 1.351 5.844 3.805 0.569 1.488 0.367 3.164-0.54 4.482C55.062 84.424 53.551 85.219 51.938 85.219z" data-fill-palette-color="accent"></path><path fill="#99802a" d="M66.789 85.219h-5.114c-1.231 0-2.229-0.998-2.229-2.229s0.998-2.229 2.229-2.229h5.114c0.202 0 0.316-0.122 0.367-0.195 0.079-0.116 0.096-0.237 0.048-0.362-0.181-0.475-0.46-0.938-1.678-0.938h-0.239c-2.069-0.03-3.504-0.626-4.417-1.821-1.577-2.064-0.847-4.913 0.079-8.52 1.137-4.429 2.693-10.493 0.577-17.111-0.375-1.173 0.272-2.428 1.445-2.803 1.167-0.371 2.427 0.271 2.803 1.445 2.506 7.841 0.693 14.903-0.506 19.577-0.429 1.67-1.008 3.927-0.85 4.663 0.122 0.04 0.393 0.104 0.901 0.11h0.206c2.83 0 4.905 1.351 5.843 3.805 0.569 1.488 0.367 3.164-0.54 4.482C69.913 84.424 68.402 85.219 66.789 85.219z" data-fill-palette-color="accent"></path><path fill="#99802a" d="M65.185 18.81c-7.065-6.006-19.282-2.417-23.299-1.236-2.928 0.86-5.597 0.995-7.546 1.094-2.09 0.106-3.352 0.17-4.277 1.116-1.547 1.578-2.155 4.189-1.629 6.983 0.553 2.937 2.245 5.304 4.527 6.333l0.294 0.133c2.909 1.31 9.722 4.377 10.544 7.729 0.258 1.053-1.852 3.047-4.084 5.158-5.437 5.141-13.653 12.909-14.492 28.682-0.065 1.229 0.879 2.279 2.108 2.345 0.04 0.002 0.08 0.003 0.12 0.003 1.177 0 2.161-0.922 2.225-2.111 0.744-13.993 7.887-20.747 13.103-25.678 3.342-3.16 6.228-5.889 5.351-9.461-1.34-5.463-8.953-8.891-13.044-10.732l-0.291-0.131c-0.922-0.416-1.665-1.563-1.958-3.004 0.344 0.242 0.761 0.388 1.214 0.388 1.166 0 2.112-0.946 2.112-2.112 0-0.471-0.159-0.901-0.419-1.252 1.974-0.121 4.567-0.371 7.401-1.204 9.369-2.752 15.633-2.636 19.152 0.356 3.129 2.66 4.232 7.875 3.279 15.5-0.332 2.652-1.944 4.644-3.186 4.771-1.189 0.125-3.266-1.634-5.104-6.997-0.399-1.165-1.666-1.786-2.832-1.387-1.165 0.399-1.786 1.668-1.387 2.832 3.011 8.78 6.988 10.271 9.781 9.987 3.994-0.413 6.665-4.767 7.15-8.654C71.15 29.05 69.531 22.506 65.185 18.81z" data-fill-palette-color="accent"></path><path fill="#99802a" d="M69.49 17.843c-0.396 0-0.794-0.14-1.113-0.425-0.688-0.615-0.748-1.673-0.133-2.361l7.104-7.95c0.614-0.688 1.671-0.749 2.361-0.133 0.688 0.615 0.748 1.673 0.133 2.361l-7.104 7.95C70.408 17.654 69.95 17.843 69.49 17.843z" data-fill-palette-color="accent"></path><path fill="#99802a" d="M51.67 28.451c-0.463 0-0.924-0.19-1.254-0.565-0.633-0.715-1.091-0.706-1.714-0.445-0.854 0.359-1.832-0.045-2.188-0.896-0.357-0.852 0.044-1.831 0.896-2.188 2.044-0.859 4.005-0.394 5.513 1.316 0.611 0.691 0.546 1.748-0.146 2.359C52.458 28.313 52.062 28.451 51.67 28.451z" data-fill-palette-color="accent"></path><path fill="#99802a" d="M73.054 22.728c-0.745 0-1.424-0.501-1.618-1.256-0.23-0.895 0.308-1.806 1.202-2.036l6.476-1.668c0.895-0.231 1.806 0.308 2.036 1.202s-0.308 1.806-1.202 2.036l-6.476 1.668C73.332 22.71 73.191 22.728 73.054 22.728z" data-fill-palette-color="accent"></path><path fill="#99802a" d="M64.666 14.374c-0.05 0-0.1-0.002-0.15-0.006-0.92-0.082-1.599-0.895-1.518-1.814l0.643-7.211c0.083-0.92 0.897-1.595 1.814-1.518 0.92 0.082 1.599 0.895 1.518 1.814l-0.643 7.211C66.252 13.72 65.522 14.374 64.666 14.374z" data-fill-palette-color="accent"></path></svg></g></svg></g></svg></g><defs></defs></svg><rect width="395.52" height="131.2170144726147" fill="none" stroke="none" visibility="hidden"></rect></g></svg></g></svg>